<?xml version="1.0" standalone="no"?>
<!DOCTYPE svg PUBLIC "-//W3C//DTD SVG 20010904//EN"
 "http://www.w3.org/TR/2001/REC-SVG-20010904/DTD/svg10.dtd">
<svg version="1.0" xmlns="http://www.w3.org/2000/svg"
 width="100.000000pt" height="100.000000pt" viewBox="0 0 100.000000 100.000000"
 preserveAspectRatio="xMidYMid meet">
<metadata>
Created by potrace 1.11, written by Peter Selinger 2001-2013
</metadata>
<g transform="translate(0.000000,100.000000) scale(0.100000,-0.100000)"
fill="#000000" stroke="none">
<path d="M464 993 c-12 -2 -38 -19 -58 -38 -31 -28 -42 -32 -61 -25 -44 17
-113 -5 -156 -49 -19 -20 -39 -75 -39 -110 0 -18 -10 -32 -29 -46 -35 -23 -48
-48 -46 -92 0 -18 -2 -33 -6 -33 -3 0 -14 -15 -24 -33 -23 -43 -14 -95 21
-128 20 -19 40 -25 90 -29 l64 -5 -35 -53 -36 -52 59 0 59 0 -28 -102 c-16
-57 -28 -108 -29 -115 -1 -32 32 9 100 127 70 123 77 130 100 123 14 -3 59 -8
100 -9 41 -1 76 -3 78 -3 2 -1 -6 -16 -17 -35 -12 -18 -21 -38 -21 -43 0 -5
23 -9 50 -8 l51 2 -5 -31 c-2 -17 -5 -31 -6 -31 -1 0 -3 -8 -6 -17 -2 -10 -6
-26 -8 -35 -3 -10 -5 -19 -6 -20 -2 -2 -3 -6 -4 -10 -15 -60 -16 -74 -11 -83
4 -7 14 1 23 18 35 60 76 129 118 197 l43 70 -42 5 c-67 8 -26 22 71 24 97 2
125 13 147 56 22 42 19 83 -8 112 -13 13 -23 38 -24 54 -2 70 -13 125 -29 154
-10 16 -22 30 -25 30 -4 0 -15 24 -23 54 -25 84 -89 134 -165 128 -14 -1 -31
8 -42 22 -40 50 -114 74 -185 59z m-96 -614 c1 -9 -6 -15 -18 -16 -22 -2 -23
-1 -14 22 8 19 28 15 32 -6z"/>
</g>
</svg>
