<?xml version="1.0" encoding="utf-8"?>
<!-- Generator: Adobe Illustrator 16.0.0, SVG Export Plug-In . SVG Version: 6.00 Build 0)  -->
<!DOCTYPE svg PUBLIC "-//W3C//DTD SVG 1.1//EN" "http://www.w3.org/Graphics/SVG/1.1/DTD/svg11.dtd">
<svg version="1.1" id="Layer_1" xmlns="http://www.w3.org/2000/svg" xmlns:xlink="http://www.w3.org/1999/xlink" x="0px" y="0px"
	 width="864px" height="864px" viewBox="0 0 864 864" enable-background="new 0 0 864 864" xml:space="preserve">
<path fill-rule="evenodd" clip-rule="evenodd" d="M195.879,648.362c-3.845-0.265-7.711-0.155-11.428-0.849
	c-20.503-3.824-34.561-22.259-36.724-40.296c-3.203-26.715,14.493-48.199,35.505-52.639c2.804-0.593,6.742-0.568,8.022-2.356
	c1.442-2.014,0.521-5.757,0.538-8.748c0.132-22.665-0.316-45.35,0.495-67.99c1.083-30.229,2.753-60.448,4.894-90.621
	c1.773-24.998,4.051-49.987,7.07-74.863c5.303-43.693,12.11-87.158,22.802-129.929c6.704-26.818,14.25-53.318,26.834-78.116
	c4.327-8.525,9.33-16.418,16.583-22.873c5.625-5.005,11.95-3.847,13.55,3.698c1.537,7.249,1.796,14.801,2.24,22.242
	c1.305,21.894,2.052,43.828,3.711,65.693c1.909,25.14,4.553,50.225,6.908,75.331c0.154,1.646,0.658,3.26,0.831,4.906
	c1.069,10.203,0.993,9.833,10.849,8.244c22.407-3.613,44.905-6.655,67.316-10.244c28.797-4.611,57.837-3.376,86.683-2.447
	c28.709,0.924,56.939,6.738,83.908,17.372c1.688,0.665,3.436,1.175,6.035,2.055c1.588-9.536,3.683-18.713,4.553-28.005
	c2.412-25.773,4.82-51.567,6.254-77.406c1.07-19.267,0.34-38.626,0.953-57.928c0.373-11.753,1.57-23.495,2.795-35.201
	c0.618-5.903,4.285-7.218,8.953-3.186c10.426,9.006,18.364,19.979,24.592,32.262c19.046,37.568,29.702,77.89,38.011,118.812
	c6.271,30.891,11.477,62.04,15.891,93.253c3.764,26.62,6.046,53.467,8.388,80.267c2.111,24.161,3.711,48.377,4.984,72.598
	c1.137,21.597,1.612,43.229,2.188,64.851c0.257,9.627,0.044,19.266,0.344,28.919c0.225-1.267,0.449-2.533,0.668-3.765
	c14.377-1.201,31.695,9.691,39.202,24.814c6.585,13.265,7.454,39.895-6.788,54.767c-9.093,9.493-26.348,17.148-34.823,14.395
	c-1.623,22.289-2.616,44.732-5.047,67.02c-2.895,26.532-6.786,52.965-10.746,79.364c-1.372,9.147-8.936,14.227-16.929,15.622
	c-9.171,1.602-18.836,0.372-28.115,0.372c-1.572-8.871-2.632-17.427-4.656-25.749c-4.479-18.415-16.315-30.844-33.844-37.079
	c-11.182-3.978-23.027-6.134-34.647-8.792c-2.061-0.471-4.627,0.219-6.703,1.029c-12.366,4.827-24.533,10.188-37.002,14.725
	c-18.836,6.853-38.285,7.406-57.988,4.602c-19.859-2.827-38.561-9.826-57.757-15.086c-10.773-2.951-22.694-2.149-34.1-2.177
	c-6.346-0.016-12.811,1.271-19.025,2.779c-22.792,5.533-34.564,21.601-40.292,43.174c-0.937,3.528-1.803,7.082-2.516,10.661
	c-0.701,3.524-2.785,5.267-6.194,6.218c-9.974,2.785-19.848,2.037-29.404-1.254c-7.194-2.478-14.008-6.051-21.016-9.08
	c-4.551-1.967-6.993-5.663-7.809-10.255c-4.035-22.721-8.442-45.396-11.663-68.236c-2.94-20.854-4.528-41.9-6.732-62.859
	C196.413,649.735,196.111,649.119,195.879,648.362z M470.646,621.135c0.098,0.478,0.195,0.955,0.293,1.432
	c0.518,0.324,0.995,0.777,1.559,0.953c28.699,8.967,57.998,14.75,88.064,16.224c1.93,0.095,4.595-1.105,5.825-2.602
	c10.781-13.106,21.93-25.982,31.713-39.814c7.044-9.958,12.413-21.146,18.009-32.053c1.778-3.467,2.223-7.926-1.9-10.839
	c-3.34-2.359-9.323-1.851-13.042,1.025c-3.817,2.954-7.521,6.054-11.297,9.062c-10.798,8.604-20.986,18.164-32.554,25.569
	c-18.344,11.745-39.121,17.923-60.262,22.901C488.109,615.101,479.441,618.386,470.646,621.135z M396.61,621.966
	c-0.019-0.752-0.039-1.504-0.058-2.256c-1.764-0.803-3.463-1.817-5.302-2.375c-10.011-3.037-19.964-6.328-30.106-8.856
	c-27.214-6.782-52.068-17.952-73.027-37.078c-7.248-6.614-15.028-12.662-22.74-18.745c-3.846-3.033-8.725-2.756-12.078-0.006
	c-1.933,1.586-2.478,5.948-2.168,8.905c0.368,3.517,1.983,7.042,3.645,10.26c12.262,23.745,29.803,43.662,46.856,63.906
	c1.026,1.219,3.53,1.861,5.256,1.715c11.602-0.985,23.316-1.511,34.734-3.604C360.057,630.451,378.291,625.978,396.61,621.966z
	 M690.285,598.732c-0.054-4.086-2.338-7.032-5.456-7.039c-3.207-0.006-5.965,3.411-5.64,7.441c0.276,3.428,1.217,6.722,5.524,6.987
	C688.016,606.326,690.344,603.105,690.285,598.732z M183.143,598.931c-0.441-2.751-1.342-5.932-5.636-6.082
	c-3.213-0.113-5.843,3.379-5.526,7.434c0.274,3.51,1.459,6.595,5.698,6.787C180.964,607.219,183.251,603.989,183.143,598.931z"/>
</svg>
