<?xml version="1.0" encoding="utf-8"?>
<!-- Generator: Adobe Illustrator 16.0.0, SVG Export Plug-In . SVG Version: 6.00 Build 0)  -->
<!DOCTYPE svg PUBLIC "-//W3C//DTD SVG 1.1//EN" "http://www.w3.org/Graphics/SVG/1.1/DTD/svg11.dtd">
<svg version="1.1" id="Layer_1" xmlns="http://www.w3.org/2000/svg" xmlns:xlink="http://www.w3.org/1999/xlink" x="0px" y="0px"
	 width="864px" height="864px" viewBox="0 0 864 864" enable-background="new 0 0 864 864" xml:space="preserve">
<path fill-rule="evenodd" clip-rule="evenodd" fill="#BE1E2D" d="M730.314,355.369C726.174,35.888,508.332,0.749,429.586,9.914
	C318.223,22.875,143.547,42.382,133.955,368.355s184.917,483.117,304.398,483.117C557.834,851.473,734.457,674.85,730.314,355.369z
	 M362.28,466.097c-12.341,35.243-58.666,64.39-95.017,58.472c-5.258-0.855-10.528-5.122-14.633-9.029
	c-35.507-33.8-52.08-77.026-56.887-124.345c-2.532-24.922,0.916-50.497,2.316-75.741c0.31-5.588,3.375-11.022,5.85-18.608
	c31.891,48.385,79.96,76.23,121.621,111.293c11.914,10.026,21.811,22.438,32.739,33.651
	C365.328,449.032,365.526,456.831,362.28,466.097z M671.518,373.044c-2.92,47.493-15.365,92.052-46.496,129.245
	c-21.074,25.18-23.273,28.396-60.449,18.26c-28.752-7.839-50.459-25.136-61.516-54.145c-3.594-9.425-3.238-17.767,3.943-24.533
	c20.615-19.427,40.67-39.643,62.777-57.247c32.561-25.927,66.301-50.295,91.277-87.725
	C671.68,323.222,673.051,348.078,671.518,373.044z"/>
<path d="M452.523,858.882c-13.592,0-27.184,0-40.777,0c-1.478-0.714-2.9-1.882-4.443-2.075c-30.58-3.829-59.06-14.566-81.778-34.752
	c-28.071-24.942-54.303-52.187-79.447-80.132c-26.854-29.845-53.095-60.346-69.339-98.122
	c-25.884-60.191-32.091-124.063-37.701-188.19c-1.397-15.966-3.374-31.882-5.083-47.821c0-22.087,0-44.175,0-66.262
	c0.794-4.54,1.68-9.064,2.367-13.62c6.042-40.046,8.896-80.886,18.676-119.996c26.114-104.42,90.839-171.648,198.222-193.976
	c17.657-3.671,35.613-5.914,53.43-8.817c16.141,0,32.282,0,48.422,0c16.703,2.552,33.504,4.592,50.094,7.744
	c72.531,13.783,131.684,48.216,170.582,112.77c27.162,45.076,40.043,94.941,46.895,146.564c3.059,23.043,5.145,46.216,7.672,69.331
	c0,22.087,0,44.175,0,66.262c-0.719,2.396-1.875,4.752-2.09,7.193c-2.762,31.232-4.77,62.542-8.193,93.699
	c-5.143,46.783-13.904,92.744-32.922,136.312c-15.541,35.602-40.797,64.153-65.408,93.255
	c-27.104,32.046-53.807,64.413-88.736,88.753C508.541,844.022,481.111,852.737,452.523,858.882z M661.055,296.9
	c-24.977,37.429-58.717,61.797-91.277,87.725c-22.107,17.604-42.162,37.82-62.777,57.247c-7.182,6.767-7.537,15.108-3.943,24.533
	c11.057,29.009,32.764,46.306,61.516,54.145c37.176,10.136,39.375,6.92,60.449-18.26c31.131-37.193,43.576-81.752,46.496-129.245
	C673.051,348.078,671.68,323.222,661.055,296.9z M203.91,296.845c-2.475,7.586-5.54,13.02-5.85,18.608
	c-1.4,25.244-4.848,50.819-2.316,75.741c4.807,47.319,21.38,90.545,56.887,124.345c4.105,3.907,9.375,8.174,14.633,9.029
	c36.351,5.918,82.676-23.229,95.017-58.472c3.246-9.266,3.048-17.064-4.011-24.307c-10.928-11.213-20.825-23.625-32.739-33.651
	C283.87,373.075,235.8,345.23,203.91,296.845z M435.914,57.896c0,21.665-0.139,44.054,0.162,66.439
	c0.041,3.063,1.418,7.122,3.633,8.986c20.217,16.996,43.514,26.206,71.963,27.976c0.842-23.438,1.879-45.32,2.131-67.209
	c0.037-3.112-3.043-8.017-5.852-9.126C484.586,75.727,460.945,67.19,435.914,57.896z M428.235,57.949
	c-24.835,9.188-48.841,17.916-72.663,27.124c-2.36,0.912-5.141,4.778-5.099,7.231c0.375,22.681,1.329,45.353,2.146,68.921
	c28.108-1.288,50.509-11.092,70.682-26.532c2.404-1.839,4.672-5.595,4.72-8.5C428.404,103.062,428.235,79.924,428.235,57.949z
	 M522.156,709.474c-5.344-17.699-11.094-37.554-17.566-57.172c-0.801-2.428-5.6-5.326-8.264-5.07
	c-22.953,2.203-41.492,13.501-57.324,29.654c-1.646,1.682-3,4.487-3.025,6.788c-0.23,20.637-0.135,41.277-0.135,59.972
	C464.277,732.388,491.908,721.449,522.156,709.474z M341.57,711.689c16.298,4.976,31.086,8.534,45.111,14.041
	c13.886,5.453,27,12.872,41.765,20.067c0-20.974,0.088-41.237-0.121-61.499c-0.023-2.345-1.111-5.237-2.711-6.921
	c-15.937-16.768-34.973-27.921-58.329-30.265c-2.424-0.244-6.833,2.351-7.534,4.526C353.316,671.625,347.496,691.808,341.57,711.689
	z M435.846,144.876c0,18.361,1.129,38.24-0.357,57.921c-1.199,15.875,5.342,25.933,17.898,33.378
	c5.771,3.423,11.873,6.463,18.141,8.847c19.617,7.455,21.996,6.314,26.221-13.682c4.309-20.398,7.936-40.941,11.27-58.334
	C483.336,163.132,460.371,154.305,435.846,144.876z M522.465,102.187c-1.256,18.607-2.855,38.325-3.68,58.075
	c-0.154,3.685,1.711,9.074,4.496,11c18.273,12.638,36.924,24.755,55.863,36.373c2.01,1.233,9.037-1.046,9.74-3.077
	c6.535-18.92,12.195-38.144,16.93-53.465C576.088,133.65,549.396,117.989,522.465,102.187z M355.708,172.825
	c0.558-2.096-0.201-0.84,0,0.234c4.375,23.279,8.569,46.603,13.726,69.71c0.57,2.554,6.929,5.749,10.31,5.439
	c31.439-2.872,48.675-22.203,48.679-53.639c0.001-17.099,0-34.199,0-49.648C403.828,154.361,380.792,163.2,355.708,172.825z
	 M257.628,149.002c5.411,17.432,11.16,35.854,16.838,54.299c2.082,6.765,6.647,7.326,11.721,4.122
	c18.097-11.429,36.119-22.991,53.845-34.979c2.754-1.861,5.518-6.279,5.397-9.404c-0.809-20.88-2.399-41.729-3.771-63.14
	c-13.772,9.579-26.027,19.236-39.359,27.055C288.956,134.78,274.536,140.767,257.628,149.002z M280.855,220.523
	c9.973,18.452,20.279,37.825,30.99,56.97c1.395,2.496,4.729,5.194,7.412,5.479c22.002,2.344,45.889-24.38,41.227-45.563
	c-4.379-19.893-8.598-39.821-12.514-57.999C325.913,192.922,304.424,206.085,280.855,220.523z M583.416,220.54
	c-23.9-14.683-45.539-27.976-67.062-41.197c-4.93,22.686-10.297,46.124-14.848,69.719c-0.664,3.438,1.443,9.138,4.205,11.203
	c10.697,8.002,21.861,15.539,33.594,21.877c2.791,1.508,10.715-0.965,12.428-3.875C563.068,259.021,573.354,239.154,583.416,220.54z
	 M427.367,806.783c8.817-45.256,3.677-55.046-40.904-73.316c-7.776-3.188-15.728-6.079-23.817-8.325
	c-7.081-1.966-14.467-2.833-23.353-4.49c-1.97,19.116-3.728,36.167-5.143,49.89C367.1,783.352,397.458,795.155,427.367,806.783z
	 M435.928,807.176c30.717-11.968,61.092-23.802,94.209-36.704c-1.461-13.833-3.293-31.183-5.252-49.73
	c-32.477,4.535-60.035,15.062-84.365,33.579c-2.35,1.787-4.307,5.643-4.389,8.596C435.699,778.456,435.928,794.015,435.928,807.176z
	 M609.311,140.358c-1.553-21.754-2.531-39.375-4.332-56.91c-0.311-3.017-3.533-7.005-6.414-8.287
	c-26.908-11.969-54.035-23.443-80.688-34.885c1.586,48.016,4.963,54.123,45.309,79.069c7.178,4.438,14.656,8.469,22.295,12.049
	C591.793,134.353,598.549,136.368,609.311,140.358z M255.193,137.362c4.826,0,7.112,0.595,8.913-0.089
	c28.011-10.627,53.398-25.474,74.295-47.268c1.946-2.028,3.774-4.94,4.095-7.628c1.718-14.376,2.94-28.811,4.243-42.287
	c-26.643,11.496-53.029,22.708-79.204,34.392c-3.339,1.489-7.642,5.205-7.989,8.285
	C257.531,100.656,256.567,118.664,255.193,137.362z M190.662,200.064c11.625,18.833,24.588,39.834,39.392,63.817
	c13.883-15.979,25.823-29.484,37.391-43.302c1.668-1.992,2.78-5.866,2.055-8.226c-5.98-19.471-12.457-38.792-18.158-56.247
	C231.935,170.164,212.599,184.172,190.662,200.064z M612.922,156.274c-5.613,17.02-11.807,35.275-17.52,53.679
	c-0.889,2.866-0.807,7.406,0.893,9.484c11.836,14.482,24.215,28.519,38.596,45.226c14.74-24.79,27.328-45.962,38.625-64.964
	C652.188,184.413,632.508,170.31,612.922,156.274z M335.725,704.08c4.026-13.688,8.25-28.619,12.819-43.441
	c6.193-20.091,4.227-26.299-14.049-36.941c-6.475-3.771-13.766-6.542-21.037-8.367c-3.212-0.805-9.262,0.738-10.673,3.165
	c-9.589,16.485-18.284,33.491-26.098,48.138C297.963,680.129,316.65,691.981,335.725,704.08z M528.736,703.768
	c19.301-12.165,38.066-23.991,58.967-37.164c-7.939-14.795-16.641-31.449-25.908-47.781c-1.281-2.26-5.674-4.551-8.088-4.079
	c-15.672,3.062-29.906,9.299-39.436,22.89c-1.975,2.813-3.43,7.474-2.557,10.557C517.084,667.171,523.191,685.942,528.736,703.768z
	 M333.512,782.438c2.583,13.089,0.89,29.164,7.716,34.668c24.452,19.708,54.036,28.639,89.858,29.074
	c-3.143-11.116-2.785-24.048-8.827-28.743C397.288,798.031,368.076,787.173,333.512,782.438z M437.115,846.136
	c25.275-0.184,48.189-6.854,69.877-18.11c19.66-10.207,24.969-22.083,20.477-45.071c-26.121,2.923-49.881,12.763-72.67,25.168
	C434.959,818.923,434.027,821.329,437.115,846.136z M589.061,225.492c-7.986,15.179-15.541,30.315-23.809,45.05
	c-11.68,20.815-11.002,25.602,7.799,41.117c2.59,2.137,5.42,3.983,8.141,5.964c-0.803-0.979-1.605-1.958-2.408-2.938
	c17.906-14.736,35.812-29.473,53.137-43.729C615.594,253.638,602.627,239.882,589.061,225.492z M283.422,319.749
	c8.468-9.208,15.699-16.216,21.751-24.125c2.052-2.683,2.793-8.497,1.294-11.423c-10.091-19.694-20.946-38.996-31.575-58.463
	c-13.231,14.115-26.078,27.821-40.075,42.754C250.329,284.849,265.909,301.279,283.422,319.749z M436.141,663.959
	c20.959-9.678,41.234-19.041,62.676-28.941c-5.061-13.378-10.889-29.144-17.109-44.752c-0.73-1.835-3.438-3.602-5.521-4.06
	c-13.76-3.019-38.465,11.664-39.662,25.356C434.961,629.428,436.141,647.534,436.141,663.959z M373.489,260.418
	c4.66,16.271,9.732,34.873,15.534,53.246c0.85,2.691,4.973,5.749,7.912,6.137c12.379,1.64,28.98-8.209,29.953-20.337
	c1.727-21.52,0.485-43.275,0.485-62.71C409.832,244.457,392.438,252.096,373.489,260.418z M365.48,634.794
	c22.148,10.344,42.057,19.641,62.935,29.391c0-13.332,0.08-27.972-0.019-42.612c-0.134-19.923-17.875-36.645-37.842-35.342
	c-2.76,0.181-6.894,2.051-7.8,4.222C376.286,605.939,370.492,621.71,365.48,634.794z M436.803,236.561
	c0,19.836-1.174,41.314,0.453,62.578c0.934,12.199,17.316,22.198,29.904,20.652c2.979-0.366,7.236-3.33,8.078-5.992
	c5.83-18.444,10.912-37.125,15.559-53.369C471.783,252.025,454.377,244.33,436.803,236.561z M349.53,81.173
	c21.874-9.004,41.053-16.201,59.622-24.728c21.346-9.801,22.519-13.323,17.424-39.427c-18.68,2.066-37.672,3.356-56.285,6.731
	c-5.383,0.977-12.538,7.174-13.917,12.311C352.804,49.365,351.998,63.409,349.53,81.173z M432.815,16.539
	c3.615,13.035,3.185,27.236,9.689,32.031c20.602,15.188,44.967,23.873,72.02,30.093c-2.031-13.656-4.957-25.673-5.279-37.76
	c-0.297-11.131-9.047-15.677-15.408-17.024C475.389,19.971,456.297,19.106,432.815,16.539z M590.631,676.603
	c-21.852,7.785-39.008,18.284-53.258,33.154c-2.922,3.049-5.609,8.247-5.252,12.167c1.246,13.647,3.877,27.169,5.812,39.645
	c20.053-14.132,40.207-28.337,61.867-43.6C597.201,706.245,594.129,692.385,590.631,676.603z M326.439,761.692
	c1.822-12.232,4.013-24.703,5.35-37.264c0.404-3.798-0.341-8.869-2.641-11.618c-14.356-17.168-32.774-28.24-55.634-36.05
	c-3.424,15.895-6.477,30.057-8.865,41.136C286.72,733.54,306.519,747.573,326.439,761.692z M676.502,188.74
	c8.992-9.195,9.115-17.988,3.455-28.634c-6.066-11.404-11.814-21.348-23.588-29.101c-15.037-9.901-27.08-24.351-41.293-37.662
	c0,14.935-0.082,28.836,0.07,42.735c0.031,2.831,0.012,6.441,1.615,8.356C633.164,164.043,651.682,180.897,676.502,188.74z
	 M187.655,188.614c24.898-7.392,43.089-24.608,59.788-43.887c0.788-0.908,1.55-2.229,1.558-3.362
	c0.103-15.632,0.069-31.266,0.069-45.748c-8.243,7.313-15.734,14.167-23.455,20.753c-7.689,6.559-16.348,12.155-23.212,19.46
	c-6.798,7.235-11.928,16.045-17.71,24.221C177.689,169.952,178.649,179.282,187.655,188.614z M272.73,655.884
	c7.666-13.634,15.719-27.438,23.121-41.584c1.415-2.704,1.623-7.663,0.052-10.035c-8.452-12.769-20.208-21.52-35.296-25.041
	c-2.554-0.596-6.732-0.192-8.194,1.474c-9.207,10.489-17.857,21.466-25.979,31.411c10.367,7.795,19.055,13.146,26.243,20.056
	C260.208,639.407,266.299,648.146,272.73,655.884z M635.951,610.757c-1.375-2.038-4.088-6.237-6.973-10.312
	c-18.82-26.585-39.484-26.283-58.801,0.83c-0.49,0.688-1.307,1.379-1.354,2.108c-0.244,3.79-1.686,8.314-0.162,11.27
	c7.24,14.044,15.309,27.661,21.957,39.437C604.865,640.471,619.562,626.422,635.951,610.757z M321.232,293.952
	c9.961,15.107,20.713,31.846,32.069,48.164c1.71,2.458,6.343,4.313,9.46,4.096c9.733-0.678,22.455-15.32,20.213-24.49
	c-4.648-19.002-10.818-37.632-15.877-54.77C351.408,276.188,336.693,284.852,321.232,293.952z M542.945,294.073
	c-15.818-9.45-30.691-18.335-45.857-27.395c-4.566,15.835-9.389,32.3-14.053,48.808c-3.561,12.604,3.387,26.639,15.676,29.927
	c3.564,0.953,10.012-0.352,11.873-2.955C522.309,326.05,533.113,308.984,542.945,294.073z M605.852,706.689
	c16.012-14.06,31.586-27.525,46.824-41.363c1.986-1.803,3.768-6.013,3.037-8.261c-3.857-11.873-8.549-23.475-13.271-36.021
	c-22.674,8.884-36.434,24.007-45.127,44.193c-0.898,2.086-0.857,4.951-0.305,7.225C599.885,684.288,603.068,696.037,605.852,706.689
	z M222.34,621.494c-2.695,6.146-5.118,11.447-7.359,16.824c-9.057,21.724-8.791,21.436,9.101,36.307
	c12.176,10.121,23.546,21.212,35.464,32.04c-2.141-16.219,15.703-31.645,3.759-49.834
	C253.255,641.527,241.813,627.66,222.34,621.494z M552.111,604.029c-9.396-11.462-19.578-23.267-29.021-35.636
	c-5.846-7.658-11.898-11.982-21.141-6.092c-9.154,5.834-16.088,13.99-12.771,25.103c4.553,15.255,11.227,29.877,16.328,43.059
	C520.826,621.773,535.619,613.384,552.111,604.029z M312.154,604.006c16.417,9.302,31.191,17.672,46.619,26.414
	c4.597-12.006,9.995-25.647,15.04-39.419c4.864-13.278-3.458-28.334-17.351-30.635c-3.428-0.567-8.688,0.854-10.868,3.331
	C333.917,576.961,322.946,590.849,312.154,604.006z M662.377,650.446c21.771-30.847,36.174-63.945,38.641-103.038
	c-24.988,15.561-43.107,35.156-51.066,62.902c-1.045,3.644-0.24,8.326,1.078,12.042
	C654.398,631.857,658.537,641.088,662.377,650.446z M201.988,650.997c2.313-6.258,4.685-12.097,6.625-18.075
	c2.295-7.067,7.266-14.98,5.774-21.271c-6.807-28.687-26.003-48.272-51.058-64.368C165.399,586.815,181.057,619.562,201.988,650.997
	z M224.164,602.031c6.416-7.992,14.517-18.084,22.325-27.809c-11.528-13.064-22.3-25.494-33.412-37.611
	c-1.587-1.73-5.201-3.235-7.239-2.645c-10.162,2.944-20.112,6.623-27.897,9.279C193.656,563.231,208.875,582.589,224.164,602.031z
	 M686.395,543.125c-9.332-3.084-20.389-6.736-30.564-10.098c-13.014,14.313-25.17,27.682-37.801,41.572
	c8.01,9.959,16.111,20.027,22.209,27.607C655.297,582.932,670.643,563.288,686.395,543.125z M265.934,728.264
	c-5.055,12.827-5.193,12.953,2.229,21.119c11.359,12.497,22.648,25.082,34.514,37.091c8.001,8.097,16.946,15.265,26.199,23.498
	C332.857,761.328,295.192,748.833,265.934,728.264z M538.043,810.332c19.508-20.456,38.785-41.137,58.656-61.234
	c6.133-6.203,6.926-11.842,1.621-20.481C568.713,748.574,531.645,761.537,538.043,810.332z M548.195,300.154
	c-8.182,12.292-17.732,26.722-27.367,41.098c-8.58,12.801-8.244,15.093,4.787,26.236c16.613-14.425,33.307-28.921,48.51-42.123
	C564.623,316.126,556.512,308.239,548.195,300.154z M342.904,370.19c2.258-9.25,7.069-17.371,4.756-21.479
	c-9.877-17.531-21.856-33.876-33.119-50.727c-8.504,8.926-16.47,17.287-25.019,26.261
	C306.185,338.586,322.742,352.837,342.904,370.19z M590.949,573.728c-21.377-10.033-43.275-20.311-67.066-31.477
	c0,5.554-2.006,11.942,0.34,15.093c11.311,15.191,23.793,29.511,34.9,42.975C570.369,590.921,580.953,582.08,590.949,573.728z
	 M273.579,573.938c9.867,8.263,20.399,17.083,31.488,26.369c10.447-12.547,21.553-26.346,33.193-39.676
	c5.978-6.845,5.529-12.306,0.247-17.016C316.088,554.087,294.771,564.042,273.579,573.938z M436.055,592.326
	c13.781-5.992,26.213-11.396,39.574-17.204c-4.094-10.216-8.316-22.078-13.686-33.398c-1.758-3.708-8.203-9.152-9.562-8.41
	c-6.027,3.289-14.891,8.008-15.59,13.179C434.727,561.709,436.055,577.386,436.055,592.326z M428.418,592.617
	c0-15.316,1.215-30.985-0.694-46.265c-0.622-4.973-9.038-9.509-14.667-12.98c-1.628-1.003-7.708,1.586-8.772,3.897
	c-5.95,12.916-10.986,26.251-15.64,37.73C402.138,580.976,414.538,586.47,428.418,592.617z M174.33,536.334
	c9.405-3.098,19.659-6.475,29.338-9.662c-9.851-21.459-19.066-42.212-29.072-62.574c-1.444-2.94-6.695-4.01-9.859-5.766
	C168.056,485.314,171.079,509.899,174.33,536.334z M393.835,329.96c3.447,10.86,6.384,21.892,10.571,32.427
	c1.659,4.173,6.094,7.241,9.266,10.812c4.907-4.483,13.343-8.478,14.047-13.545c1.949-14.034,0.676-28.517,0.676-42.33
	C416.653,321.616,405.854,325.565,393.835,329.96z M470.402,330.059c-12.219-4.478-22.963-8.415-34.537-12.656
	c0,14.004-1.283,28.507,0.689,42.551c0.699,4.985,9.074,9.26,14.646,12.731c0.707,0.442,6.973-5.479,8.447-9.307
	C463.869,352.419,466.953,341.021,470.402,330.059z M690.035,536.354c3.17-25.958,6.252-51.184,9.545-78.148
	c-3.027,1.721-7.695,2.723-8.959,5.357c-9.965,20.768-19.281,41.847-29.053,63.397C671.127,530.114,681.047,533.387,690.035,536.354
	z M474.035,513.357c-3.33,8.458-8.219,14.561-6.969,18.891c3.754,13.003,9.904,25.314,14.777,37.075
	c8.947-6.812,16.869-12.846,25.232-19.215C497.338,539.277,487.258,528.064,474.035,513.357z M357.548,549.851
	c8.886,7.055,16.548,13.136,24.748,19.646c4.287-10.161,8.263-20.791,13.202-30.953c4.935-10.149,1.816-16.593-8.228-21.985
	C376.982,528.082,366.881,539.396,357.548,549.851z M388.298,338.226c-8.85,6.443-16.796,12.229-25.222,18.362
	c8.15,11.167,16.297,22.332,24.452,33.506c11.542-5.655,14.773-12.917,9.862-24.241
	C393.543,356.985,391.264,347.438,388.298,338.226z M477.059,389.908c8.492-11.824,16.494-22.962,23.965-33.362
	c-8.879-6.556-16.553-12.222-24.096-17.79C461.236,378.905,459.686,380.392,477.059,389.908z M150.314,363.914
	c-1.907,0.707-3.813,1.414-5.719,2.122c2.349,12.347,4.782,24.678,7.024,37.043c2.565,14.149,4.748,28.37,7.515,42.478
	c1.459,7.436,1.863,7.355,8.656,3.647c-3.784-25.271-7.271-49.902-11.357-74.433C155.791,370.918,152.422,367.521,150.314,363.914z
	 M696.416,450.21c0.533,0.757,1.064,1.513,1.6,2.269c2.453-2.637,6.439-4.941,7.098-7.97c3.055-14.048,5.141-28.304,7.664-42.47
	c2.152-12.083,4.43-24.146,6.652-36.218c-5.48-0.368-8.027,0.138-8.199,1.079C706.146,394.643,701.301,422.43,696.416,450.21z
	 M159.772,268.788c6.553-22.819,13.436-45.727,19.488-68.852c1.065-4.071-1.343-9.052-2.755-17.053
	C160.914,217.731,152.793,263.479,159.772,268.788z M607.143,729.578c1.213,0.957,2.426,1.914,3.641,2.869
	c15.396-19.016,30.797-38.031,46.197-57.047c-1.047-0.828-2.092-1.656-3.137-2.484C634.934,689.173,614.055,703.88,607.143,729.578z
	 M207.249,675.646c15.27,18.733,30.54,37.468,46.767,57.377C257.064,716.938,234.751,688.594,207.249,675.646z M484.789,403.397
	c10.348-10.096,21.074-20.562,32.254-31.471c-2.201-2.833-5.391-6.934-8.721-11.22C484.014,388.954,480.805,395.244,484.789,403.397
	z M690.529,182.275c-6.004,11.35,9.801,79.058,20.24,85.042C704.289,240.086,697.809,212.858,690.529,182.275z M158.951,274.321
	c-3.818,2.973-4.993,3.43-5.046,3.995c-2.36,24.699-4.736,49.398-6.652,74.133c-0.137,1.768,3.174,3.803,6.373,7.38
	C155.462,330.325,157.109,303.882,158.951,274.321z M356.497,358.911c-4.331,6.445-6.999,10.416-9.667,14.387
	c1.441-0.931,2.883-1.86,4.326-2.79c10.358,10.594,20.716,21.188,30.956,31.662C380.453,385.365,364.75,375.723,356.497,358.911z
	 M454.92,524.095c-5.812-14.173-11.16-27.214-16.508-40.254c-0.637,0.162-1.273,0.325-1.908,0.487c0,14.961,0,29.923,0,45.601
	C442.957,527.885,448.461,526.141,454.92,524.095z M453.555,381.891c-6.752-2.005-11.402-3.385-16.559-4.916
	c0,16.604,0,32.365,0,48.126c0.623,0.061,1.246,0.122,1.867,0.183C443.643,411.165,448.424,397.047,453.555,381.891z
	 M427.331,530.006c0-15.841,0-30.771,0-45.699c-0.599-0.057-1.197-0.113-1.796-0.169c-5.304,13.263-10.607,26.525-15.923,39.819
	C416.016,526.144,421.135,527.891,427.331,530.006z M151.617,462.273c2.901,25.006,5.803,50.014,8.703,75.02
	c1.164-0.151,2.327-0.303,3.49-0.455C165.807,511.173,164.127,486.001,151.617,462.273z M425.244,424.898
	c0.742-0.245,1.483-0.489,2.225-0.734c0-15.679,0-31.359,0-47.583c-5.895,1.938-10.607,3.486-16.639,5.467
	C415.739,396.642,420.491,410.771,425.244,424.898z M712.537,462.968c-12.094,23.67-14.74,48.418-11.545,73.833
	c1.053,0.119,2.105,0.238,3.158,0.359C706.947,512.429,709.742,487.697,712.537,462.968z M711.053,358
	c2.18-1.237,5.895-2.453,5.836-3.442c-1.559-25.793-3.51-51.563-5.393-77.338c-1.643,0.099-3.287,0.198-4.93,0.296
	C708.045,304.045,709.525,330.574,711.053,358z M485.039,501.706c-3.189,9.712,11.365,30.194,29.816,43.412
	c4.598-5.219,4.844-9.191-1.152-14.464C503.645,521.81,494.746,511.645,485.039,501.706z M346.89,544.539
	c1.578,0.338,3.157,0.675,4.735,1.012c9.21-14.233,25.585-23.403,29.854-41.135c-11.657,8.723-22.207,18.157-31.881,28.419
	C347.226,535.351,347.716,540.564,346.89,544.539z M414.518,426.809c1.028-0.127,2.056-0.252,3.083-0.378
	c-4.364-12.781-8.729-25.562-13.407-39.257c-4.496,3.955-7.614,6.7-11.415,10.044C400.175,407.284,407.347,417.046,414.518,426.809z
	 M446.676,426.103c0.959,0.346,1.92,0.692,2.881,1.037c7.264-9.989,14.527-19.977,21.947-30.181
	c-4.232-3.476-7.332-6.019-11.543-9.476C455.262,401.145,450.969,413.624,446.676,426.103z M249.544,79.283
	c-1.332-1.278-2.663-2.558-3.995-3.837c-12.87,14.361-25.738,28.721-38.607,43.082c1.206,1.077,2.412,2.152,3.616,3.227
	C223.554,107.598,236.549,93.44,249.544,79.283z M618.561,75.403c-1.328,1.299-2.654,2.599-3.982,3.897
	c13.258,14.31,26.514,28.619,39.768,42.93c1.207-1.104,2.414-2.208,3.619-3.312C644.83,104.414,631.695,89.908,618.561,75.403z
	 M416.707,485.561c-0.649-0.399-1.299-0.799-1.948-1.199c-7.161,8.421-14.324,16.843-21.863,25.708
	c3.899,3.308,6.872,5.831,10.44,8.859C408.084,507.078,412.395,496.32,416.707,485.561z M449.746,484.698
	c-0.729,0.408-1.459,0.816-2.188,1.225c4.469,10.817,8.938,21.636,13.914,33.679c3.906-4.277,6.58-7.201,9.34-10.223
	C463.326,500.608,456.535,492.654,449.746,484.698z M585.205,61.856c0.514-1.172,1.025-2.343,1.537-3.516
	c-16.025-7.122-32.051-14.243-48.076-21.365c-0.564,1.287-1.129,2.574-1.691,3.86C553.051,47.842,569.129,54.849,585.205,61.856z
	 M327.154,40.842c-0.521-1.205-1.042-2.408-1.564-3.613c-14.586,6.333-29.17,12.666-43.756,18.999
	c0.535,1.237,1.07,2.474,1.605,3.711C298.012,53.574,312.583,47.208,327.154,40.842z M474.021,501.5
	c6.121-10.287-0.807-18.468-19.291-22.872C461.48,486.631,467.674,493.975,474.021,501.5z M411.676,476.128
	c-23.106,10.526-27.127,15.653-21.226,25.119C396.794,493.739,403.023,486.367,411.676,476.128z"/>
</svg>
